<svg version="1.1" id="Layer_1" xmlns="http://www.w3.org/2000/svg" xmlns:xlink="http://www.w3.org/1999/xlink" x="0px" y="0px"
	 width="100%" viewBox="0 0 2000 2000" enable-background="new 0 0 2000 2000" xml:space="preserve">
<path fill="#121212" opacity="1.000000" stroke="none" 
	d="
M2001.000000,2.000000 
	C2001.000000,668.268799 2001.000000,1334.537598 2001.000000,2001.000000 
	C1334.962402,2001.000000 668.924805,2001.000000 2.443724,2000.556396 
	C2.000061,1335.941895 1.999759,671.770935 2.005352,7.599996 
	C2.005367,5.770248 2.091108,3.940502 2.567372,2.058138 
	C668.998596,2.003680 1334.999268,2.001840 2001.000000,2.000000 
M937.528870,933.612793 
	C938.018433,932.408508 938.507996,931.204224 939.288452,929.355103 
	C942.526489,921.237549 945.764465,913.119934 949.528870,904.613159 
	C950.018433,903.408813 950.508057,902.204407 951.253052,900.412964 
	C951.502869,899.609253 951.752625,898.805603 952.549500,897.580078 
	C953.367126,895.386719 954.184753,893.193359 955.534790,890.544373 
	C956.691650,887.032837 957.848450,883.521301 959.576294,879.715637 
	C960.050049,878.810425 960.523804,877.905212 961.291077,876.349976 
	C963.527405,870.899963 965.763672,865.449951 968.480530,859.656311 
	C968.652283,859.104187 968.824036,858.552063 969.251831,857.412842 
	C969.502014,856.608887 969.752258,855.804932 970.549622,854.579407 
	C971.365601,852.386292 972.181580,850.193176 973.288330,847.355103 
	C977.192200,837.903442 981.096130,828.451721 985.480225,818.655884 
	C985.651855,818.103943 985.823486,817.551941 986.284790,816.358215 
	C987.190674,813.906006 988.096619,811.453796 989.528809,808.612671 
	C990.017639,807.408447 990.506409,806.204224 991.286194,804.355774 
	C992.191589,801.904114 993.097046,799.452454 994.528870,796.612122 
	C995.017639,795.408081 995.506409,794.204041 996.251343,792.412720 
	C996.501709,791.608459 996.752075,790.804260 997.529175,789.611938 
	C998.017883,788.407959 998.506531,787.203979 999.285645,785.356506 
	C999.857910,783.571716 1000.430176,781.786926 1001.549561,779.580261 
	C1002.367188,777.386841 1003.184814,775.193420 1004.533936,772.545959 
	C1007.022644,766.363953 1009.511353,760.182007 1012.521362,753.565247 
	C1013.015015,752.043518 1013.508728,750.521729 1014.555603,748.571350 
	C1015.704529,745.381165 1016.853516,742.190918 1018.528748,738.611938 
	C1019.018311,737.407959 1019.507935,736.203979 1020.291382,734.350037 
	C1023.254578,727.171143 1026.088745,719.934326 1029.266479,712.851685 
	C1030.120605,710.948181 1032.020264,709.513672 1033.916016,708.345703 
	C1067.204834,777.985962 1100.415649,847.663696 1133.803101,917.256592 
	C1171.062378,994.920044 1208.464600,1072.514893 1245.841064,1150.121948 
	C1258.805542,1177.040527 1271.901001,1203.895996 1284.845581,1230.824097 
	C1285.552002,1232.293335 1285.417236,1234.166992 1285.711060,1235.774902 
	C1285.711060,1235.774902 1285.642212,1235.794556 1285.599854,1235.069336 
	C1259.716431,1212.528687 1232.503418,1191.734741 1203.657959,1173.124390 
	C1159.759277,1144.802246 1113.499512,1121.508301 1062.884277,1107.594116 
	C1027.904663,1097.978027 992.206726,1093.076294 956.005432,1092.271851 
	C932.318176,1091.745605 908.794067,1093.702026 885.416138,1101.214355 
	C884.548523,1101.586304 883.680908,1101.958374 881.787170,1102.770386 
	C883.964417,1102.770386 885.013916,1102.770386 886.895996,1102.855835 
	C888.560486,1102.735229 890.224915,1102.614624 892.777100,1102.851807 
	C907.380859,1103.972900 922.086121,1104.355469 936.570618,1106.344849 
	C994.082581,1114.244629 1048.493530,1132.340210 1100.565918,1157.704102 
	C1186.684448,1199.651367 1260.473511,1257.987305 1326.017578,1327.321045 
	C1329.437500,1330.938721 1333.925903,1334.158936 1338.544189,1335.901489 
	C1347.635620,1339.331787 1355.645996,1334.412598 1357.960571,1325.033203 
	C1359.706299,1317.958618 1358.632202,1311.238037 1355.765259,1304.593018 
	C1323.506470,1229.824585 1291.531006,1154.933105 1259.046143,1080.263062 
	C1187.977661,916.903870 1116.638794,753.662292 1045.468994,590.347046 
	C1037.096191,571.133911 1022.549377,560.425171 1001.764648,560.384460 
	C980.983948,560.343689 966.354736,571.003540 957.885132,590.140625 
	C946.383423,616.129089 934.586548,641.986816 923.071838,667.969543 
	C860.612183,808.908325 798.076660,949.813660 735.814148,1090.839478 
	C691.575684,1191.040649 647.292175,1291.226440 603.911072,1391.799683 
	C585.581604,1434.294312 592.467163,1474.460205 621.018921,1510.823608 
	C633.105103,1526.216553 649.667053,1536.064087 665.956543,1546.104248 
	C763.959595,1606.508911 870.356140,1639.003784 985.609131,1642.019775 
	C1043.869141,1643.544189 1101.353149,1637.719971 1157.879639,1623.543335 
	C1279.037598,1593.157104 1383.034668,1532.859741 1468.080566,1441.426025 
	C1584.089233,1316.704102 1640.689941,1168.355225 1640.132080,998.116394 
	C1639.972046,949.281433 1633.721313,901.188538 1622.057373,853.797302 
	C1593.682129,738.508057 1536.994019,639.165222 1453.109741,555.348267 
	C1403.574585,505.853027 1347.056519,466.017487 1284.009521,435.506989 
	C1208.338379,398.887207 1128.530396,378.364685 1044.563599,373.871063 
	C990.049805,370.953674 936.011841,374.674683 882.691895,386.238800 
	C752.510071,414.472900 641.453125,477.083221 552.511536,576.240723 
	C432.379639,710.170898 380.158813,867.510803 396.905670,1047.057983 
	C402.842529,1110.708130 420.091431,1171.453979 446.232422,1229.719727 
	C448.411804,1234.577271 450.834473,1239.325684 453.144073,1244.124878 
	C453.538177,1243.962158 453.932281,1243.799438 454.326355,1243.636719 
	C442.690948,1214.826172 434.000183,1185.116455 426.481903,1154.151978 
	C422.897095,1133.171387 418.606873,1112.282471 415.867340,1091.192017 
	C409.182007,1039.724365 409.937469,988.193787 417.283051,936.844788 
	C426.634796,871.471863 446.111176,809.208679 476.642822,750.584229 
	C535.423950,637.717285 621.413391,551.999878 734.791138,494.200623 
	C801.318420,460.285461 872.030823,440.649231 946.579102,434.735687 
	C1007.337036,429.916016 1067.298584,434.417908 1126.485107,448.818542 
	C1232.607910,474.639160 1323.779541,526.819580 1400.187622,604.795044 
	C1440.678711,646.116638 1473.914429,692.654358 1499.948853,744.341858 
	C1540.090698,824.037170 1560.262207,908.511902 1560.391113,997.709595 
	C1560.446045,1035.755737 1556.802612,1073.494141 1549.113525,1110.800293 
	C1523.589478,1234.636841 1463.625854,1338.904297 1368.164795,1421.518555 
	C1256.475342,1518.177490 1125.750732,1563.046021 978.061279,1558.152466 
	C916.664856,1556.118286 857.346008,1543.703857 799.997803,1521.838867 
	C768.581421,1509.860840 738.390442,1495.324463 709.975220,1476.656738 
	C716.224243,1461.636719 722.402283,1446.586670 728.735596,1431.602417 
	C747.286926,1387.711304 765.946716,1343.866211 784.473267,1299.964844 
	C797.447266,1269.220947 810.307739,1238.428955 823.149902,1207.629761 
	C830.174011,1190.784058 837.054626,1173.878540 844.480591,1156.656250 
	C844.652954,1156.104248 844.825317,1155.552124 845.274597,1154.381592 
	C845.849731,1152.921021 846.424866,1151.460571 847.480713,1149.656372 
	C847.652222,1149.104248 847.823669,1148.552124 848.289978,1147.348389 
	C851.527466,1139.232300 854.764954,1131.116089 858.482849,1122.656128 
	C858.656067,1122.104126 858.829285,1121.552002 859.536804,1120.537231 
	C861.025391,1116.691528 862.513916,1112.845703 864.550110,1108.579834 
	C865.034241,1107.053223 865.518372,1105.526611 866.550110,1103.578979 
	C867.367554,1101.385986 868.184998,1099.192993 869.482788,1096.656250 
	C869.654419,1096.104126 869.825989,1095.552124 870.286865,1094.357788 
	C871.525391,1091.238525 872.763916,1088.119263 874.529053,1084.612061 
	C875.017761,1083.408081 875.506470,1082.203979 876.251404,1080.412598 
	C876.501709,1079.608398 876.752075,1078.804199 877.483032,1077.656250 
	C877.655334,1077.104126 877.827698,1076.552124 878.532104,1075.543945 
	C879.355530,1073.029297 880.178955,1070.514648 881.483154,1067.656494 
	C881.656250,1067.104370 881.829346,1066.552124 882.536133,1065.541382 
	C885.024841,1059.360840 887.513611,1053.180420 890.550049,1046.579956 
	C891.034180,1045.053345 891.518311,1043.526611 892.532166,1041.548218 
	C894.020386,1038.032104 895.508545,1034.516113 897.273499,1030.381104 
	C897.847412,1028.920776 898.421265,1027.460327 899.290039,1025.348511 
	C902.860779,1016.566284 906.431580,1007.784119 910.528748,998.612976 
	C911.017578,997.408630 911.506348,996.204346 912.291199,994.346436 
	C916.528259,983.898071 920.765320,973.449646 925.528870,962.612549 
	C926.017578,961.408325 926.506348,960.204163 927.286194,958.355896 
	C928.191589,955.904724 929.097046,953.453491 930.528870,950.613342 
	C931.018433,949.408936 931.507996,948.204468 932.253296,946.413208 
	C932.502991,945.609497 932.752686,944.805847 933.482422,943.657227 
	C933.654114,943.104797 933.825867,942.552429 934.288513,941.355957 
	C935.193115,938.904480 936.097778,936.453064 937.528870,933.612793 
M454.121155,1246.160400 
	C454.322662,1246.264038 454.524200,1246.367554 454.725769,1246.471069 
	C454.800232,1246.193481 454.874725,1245.916016 454.949158,1245.638428 
	C454.632599,1245.596680 454.316071,1245.554932 454.121155,1246.160400 
z"/>
<path fill="#C4C4C4" opacity="1.000000" stroke="none" 
	d="
M2001.000000,1.500000 
	C1334.999268,2.001840 668.998596,2.003680 2.283540,2.023318 
	C1.379432,2.027410 1.189716,2.013705 1.000000,2.000000 
	C1.166667,1.666667 1.315919,1.056198 1.502793,1.044456 
	C2.830883,0.961004 4.166667,1.000000 5.500000,1.000000 
	C670.666687,1.000000 1335.833374,1.000000 2001.000000,1.500000 
z"/>
<path fill="#888888" opacity="1.000000" stroke="none" 
	d="
M1.000000,2.443604 
	C1.189716,2.013705 1.379432,2.027410 1.852979,2.075935 
	C2.091108,3.940502 2.005367,5.770248 2.005352,7.599996 
	C1.999759,671.770935 2.000061,1335.941895 2.000124,2000.556396 
	C1.666674,2000.833374 1.056216,2000.684326 1.044468,2000.497437 
	C0.961007,1999.169678 1.000000,1997.834106 1.000000,1996.501099 
	C1.000000,1331.963135 1.000000,667.425171 1.000000,2.443604 
z"/>
<path fill="#FEFEFE" opacity="1.000000" stroke="none" 
	d="
M886.065796,1101.240967 
	C908.794067,1093.702026 932.318176,1091.745605 956.005432,1092.271851 
	C992.206726,1093.076294 1027.904663,1097.978027 1062.884277,1107.594116 
	C1113.499512,1121.508301 1159.759277,1144.802246 1203.657959,1173.124390 
	C1232.503418,1191.734741 1259.716431,1212.528687 1285.946289,1235.371582 
	C1286.305786,1235.369019 1286.318848,1235.064209 1286.331787,1234.759277 
	C1286.112427,1235.123657 1285.893188,1235.488037 1285.673828,1235.852417 
	C1285.417236,1234.166992 1285.552002,1232.293335 1284.845581,1230.824097 
	C1271.901001,1203.895996 1258.805542,1177.040527 1245.841064,1150.121948 
	C1208.464600,1072.514893 1171.062378,994.920044 1133.803101,917.256592 
	C1100.415649,847.663696 1067.204834,777.985962 1033.572021,707.747498 
	C1025.128662,690.190552 1017.115967,673.189209 1008.823425,656.325562 
	C1007.750854,654.144531 1005.230652,652.675354 1003.381104,650.876465 
	C1001.568359,652.765747 999.008362,654.338928 998.055542,656.591858 
	C985.011230,687.436523 972.188965,718.375183 959.159180,749.622253 
	C957.389893,753.969299 955.773560,757.984802 954.047363,762.317993 
	C953.592224,763.677734 953.246887,764.719849 952.577271,765.949219 
	C949.554688,772.757690 946.856445,779.378967 944.044495,786.354004 
	C942.854248,789.436462 941.777710,792.165283 940.412659,795.105347 
	C936.013794,805.518433 931.903442,815.720276 927.487244,826.092285 
	C926.706604,827.810059 926.231812,829.357666 925.453491,831.098633 
	C923.684753,835.163879 922.219543,839.035767 920.462524,843.079834 
	C919.735168,844.725220 919.299622,846.198364 918.553467,847.874390 
	C917.052551,851.065125 915.862244,854.052917 914.365234,857.301392 
	C913.254883,860.000366 912.451294,862.438599 911.376099,865.101685 
	C908.792175,870.884521 906.479858,876.442444 904.076111,882.312256 
	C903.889465,883.046997 903.794250,883.469727 903.411438,884.104248 
	C901.705811,888.121643 900.287781,891.927246 898.555969,895.923645 
	C897.213867,898.743042 896.185486,901.371582 895.037781,904.351807 
	C892.909485,909.726990 890.900452,914.750549 888.571777,919.955078 
	C887.432983,922.397583 886.613892,924.659058 885.483337,927.100220 
	C884.063110,930.416443 882.954285,933.552917 881.546265,936.874390 
	C880.783630,938.356323 880.320251,939.653198 879.528076,941.115967 
	C877.522156,945.521423 875.844971,949.760925 874.070068,954.322388 
	C873.436584,955.845642 872.900818,957.046936 872.189575,958.575806 
	C869.398621,965.269043 866.783081,971.634766 864.061218,978.356934 
	C862.869263,981.441162 861.783691,984.168823 860.419922,987.087219 
	C859.710083,988.747803 859.278381,990.217651 858.536133,991.892700 
	C852.708801,1005.412048 847.191956,1018.726257 841.366699,1032.294800 
	C839.999573,1035.605591 838.940674,1038.662109 837.564575,1041.913086 
	C836.106567,1045.049927 834.965820,1047.992188 833.513550,1051.094238 
	C832.520386,1053.169434 831.838684,1055.084717 831.043274,1057.354370 
	C828.855408,1062.769287 826.781311,1067.829956 824.417175,1073.100586 
	C816.863098,1090.583618 809.585205,1107.850830 802.337585,1125.130737 
	C782.577576,1172.242798 762.851196,1219.369019 743.072388,1266.473145 
	C721.263916,1318.410889 699.402893,1370.326660 677.584717,1422.260376 
	C671.207825,1437.439209 675.309326,1454.006348 688.446960,1463.796265 
	C695.216980,1468.841064 702.700684,1472.928101 709.861938,1477.447876 
	C738.390442,1495.324463 768.581421,1509.860840 799.997803,1521.838867 
	C857.346008,1543.703857 916.664856,1556.118286 978.061279,1558.152466 
	C1125.750732,1563.046021 1256.475342,1518.177490 1368.164795,1421.518555 
	C1463.625854,1338.904297 1523.589478,1234.636841 1549.113525,1110.800293 
	C1556.802612,1073.494141 1560.446045,1035.755737 1560.391113,997.709595 
	C1560.262207,908.511902 1540.090698,824.037170 1499.948853,744.341858 
	C1473.914429,692.654358 1440.678711,646.116638 1400.187622,604.795044 
	C1323.779541,526.819580 1232.607910,474.639160 1126.485107,448.818542 
	C1067.298584,434.417908 1007.337036,429.916016 946.579102,434.735687 
	C872.030823,440.649231 801.318420,460.285461 734.791138,494.200623 
	C621.413391,551.999878 535.423950,637.717285 476.642822,750.584229 
	C446.111176,809.208679 426.634796,871.471863 417.283051,936.844788 
	C409.937469,988.193787 409.182007,1039.724365 415.867340,1091.192017 
	C418.606873,1112.282471 422.897095,1133.171387 426.208923,1154.391602 
	C421.628143,1135.426025 416.402893,1116.370239 413.250854,1096.977295 
	C409.531891,1074.096191 406.731750,1050.983276 405.155640,1027.860352 
	C403.656494,1005.867249 404.041290,983.732239 403.978546,961.658447 
	C403.912323,938.351624 407.130096,915.325745 411.017059,892.404602 
	C415.441376,866.314941 422.127655,840.802734 431.043671,815.875000 
	C441.776886,785.866455 455.795868,757.347656 470.926239,729.400757 
	C482.801666,707.465942 494.873566,685.564758 508.232330,664.520874 
	C535.561218,621.470154 568.157532,582.658508 607.067322,549.562927 
	C626.663818,532.894775 646.886902,516.850037 667.769775,501.835052 
	C696.744629,481.001984 728.036682,463.952301 760.529053,449.126709 
	C791.159302,435.150848 822.643066,423.591431 855.196472,414.990631 
	C881.209106,408.117981 907.441711,402.223236 934.302124,399.935486 
	C957.274841,397.978882 980.284424,396.311554 1003.310486,395.186340 
	C1014.403992,394.644257 1025.586060,395.404846 1036.704346,396.009705 
	C1050.120728,396.739655 1063.530151,397.732697 1076.910156,398.964539 
	C1101.558838,401.233856 1125.799072,405.792542 1149.861450,411.658295 
	C1189.002319,421.199799 1226.334595,435.523743 1262.353271,453.317139 
	C1289.227173,466.592926 1314.890259,482.016602 1339.447266,499.235748 
	C1377.267334,525.754761 1412.954224,554.832764 1443.760498,589.376404 
	C1460.330444,607.956665 1476.452026,627.047974 1491.395996,646.945007 
	C1528.267822,696.037964 1555.690186,750.236206 1575.180542,808.408081 
	C1587.495117,845.163269 1596.319458,882.731934 1601.263672,921.259033 
	C1604.800537,948.820740 1607.007812,976.423279 1606.860962,1004.180054 
	C1606.788208,1017.954407 1605.968872,1031.744263 1604.965454,1045.489014 
	C1603.915161,1059.874878 1602.837891,1074.303833 1600.720459,1088.557739 
	C1595.124146,1126.230835 1586.307617,1163.151245 1573.895264,1199.220459 
	C1557.016113,1248.270142 1534.470337,1294.516846 1505.741455,1337.669922 
	C1481.156982,1374.597656 1453.263672,1408.886597 1420.508423,1438.918213 
	C1403.001953,1454.968628 1385.257690,1470.890137 1366.482788,1485.397095 
	C1335.359253,1509.445190 1301.834106,1529.813232 1266.369263,1547.031494 
	C1234.695435,1562.409180 1201.963379,1574.902588 1168.213867,1584.687866 
	C1122.123535,1598.051025 1074.973389,1605.859985 1027.066772,1607.632568 
	C1001.688232,1608.571533 976.132751,1607.671143 950.790955,1605.794434 
	C927.528442,1604.071899 904.233521,1601.026123 881.326965,1596.619263 
	C831.490479,1587.031372 783.485168,1571.263916 737.933655,1548.782837 
	C716.768433,1538.337158 696.169495,1526.653931 675.822327,1514.668579 
	C658.897400,1504.699219 642.900085,1493.406372 631.210632,1476.896606 
	C618.767395,1459.322144 611.139893,1440.753052 617.153198,1419.012939 
	C620.331299,1407.522949 623.937134,1396.053345 628.536011,1385.071167 
	C649.735657,1334.447266 671.313538,1283.981445 692.831177,1233.491089 
	C714.676147,1182.232422 736.660950,1131.033569 758.489807,1079.768188 
	C781.620178,1025.446289 804.596680,971.058960 827.718445,916.733521 
	C850.255005,863.782959 872.924622,810.889099 895.473267,757.943787 
	C918.867615,703.012939 942.133728,648.027466 965.592346,593.124207 
	C969.399902,584.212769 975.606934,576.797241 983.808594,571.745789 
	C996.995728,563.623718 1015.972656,565.692627 1026.475098,577.480042 
	C1033.316895,585.158813 1038.992065,594.419556 1043.124634,603.874207 
	C1059.708618,641.815063 1075.492554,680.105652 1091.561890,718.271362 
	C1115.505127,775.138306 1139.431152,832.012573 1163.380005,888.877258 
	C1191.073120,954.632263 1218.790283,1020.377258 1246.483521,1086.132202 
	C1273.143677,1149.434204 1299.814453,1212.731689 1326.395874,1276.066650 
	C1329.217651,1282.790283 1331.923462,1289.630981 1333.810303,1296.651855 
	C1334.878906,1300.628174 1336.888306,1306.012207 1331.260620,1308.560181 
	C1325.953003,1310.963379 1322.617798,1306.648926 1319.229858,1303.603882 
	C1301.918945,1288.044678 1285.062012,1271.954346 1267.318359,1256.908569 
	C1241.469482,1234.989868 1215.285156,1213.443848 1188.725342,1192.393066 
	C1152.338135,1163.553223 1112.184448,1141.134155 1068.591797,1125.094604 
	C1016.310303,1105.857910 962.242981,1097.701050 906.605347,1100.121582 
	C901.674988,1100.336304 896.793579,1101.676636 891.889404,1102.494141 
	C890.224915,1102.614624 888.560486,1102.735229 886.519714,1102.559326 
	C886.117554,1101.922241 886.091675,1101.581665 886.065796,1101.240967 
z"/>
<path fill="#CBCBCB" opacity="1.000000" stroke="none" 
	d="
M892.333252,1102.672974 
	C896.793579,1101.676636 901.674988,1100.336304 906.605347,1100.121582 
	C962.242981,1097.701050 1016.310303,1105.857910 1068.591797,1125.094604 
	C1112.184448,1141.134155 1152.338135,1163.553223 1188.725342,1192.393066 
	C1215.285156,1213.443848 1241.469482,1234.989868 1267.318359,1256.908569 
	C1285.062012,1271.954346 1301.918945,1288.044678 1319.229858,1303.603882 
	C1322.617798,1306.648926 1325.953003,1310.963379 1331.260620,1308.560181 
	C1336.888306,1306.012207 1334.878906,1300.628174 1333.810303,1296.651855 
	C1331.923462,1289.630981 1329.217651,1282.790283 1326.395874,1276.066650 
	C1299.814453,1212.731689 1273.143677,1149.434204 1246.483521,1086.132202 
	C1218.790283,1020.377258 1191.073120,954.632263 1163.380005,888.877258 
	C1139.431152,832.012573 1115.505127,775.138306 1091.561890,718.271362 
	C1075.492554,680.105652 1059.708618,641.815063 1043.124634,603.874207 
	C1038.992065,594.419556 1033.316895,585.158813 1026.475098,577.480042 
	C1015.972656,565.692627 996.995728,563.623718 983.808594,571.745789 
	C975.606934,576.797241 969.399902,584.212769 965.592346,593.124207 
	C942.133728,648.027466 918.867615,703.012939 895.473267,757.943787 
	C872.924622,810.889099 850.255005,863.782959 827.718445,916.733521 
	C804.596680,971.058960 781.620178,1025.446289 758.489807,1079.768188 
	C736.660950,1131.033569 714.676147,1182.232422 692.831177,1233.491089 
	C671.313538,1283.981445 649.735657,1334.447266 628.536011,1385.071167 
	C623.937134,1396.053345 620.331299,1407.522949 617.153198,1419.012939 
	C611.139893,1440.753052 618.767395,1459.322144 631.210632,1476.896606 
	C642.900085,1493.406372 658.897400,1504.699219 675.822327,1514.668579 
	C696.169495,1526.653931 716.768433,1538.337158 737.933655,1548.782837 
	C783.485168,1571.263916 831.490479,1587.031372 881.326965,1596.619263 
	C904.233521,1601.026123 927.528442,1604.071899 950.790955,1605.794434 
	C976.132751,1607.671143 1001.688232,1608.571533 1027.066772,1607.632568 
	C1074.973389,1605.859985 1122.123535,1598.051025 1168.213867,1584.687866 
	C1201.963379,1574.902588 1234.695435,1562.409180 1266.369263,1547.031494 
	C1301.834106,1529.813232 1335.359253,1509.445190 1366.482788,1485.397095 
	C1385.257690,1470.890137 1403.001953,1454.968628 1420.508423,1438.918213 
	C1453.263672,1408.886597 1481.156982,1374.597656 1505.741455,1337.669922 
	C1534.470337,1294.516846 1557.016113,1248.270142 1573.895264,1199.220459 
	C1586.307617,1163.151245 1595.124146,1126.230835 1600.720459,1088.557739 
	C1602.837891,1074.303833 1603.915161,1059.874878 1604.965454,1045.489014 
	C1605.968872,1031.744263 1606.788208,1017.954407 1606.860962,1004.180054 
	C1607.007812,976.423279 1604.800537,948.820740 1601.263672,921.259033 
	C1596.319458,882.731934 1587.495117,845.163269 1575.180542,808.408081 
	C1555.690186,750.236206 1528.267822,696.037964 1491.395996,646.945007 
	C1476.452026,627.047974 1460.330444,607.956665 1443.760498,589.376404 
	C1412.954224,554.832764 1377.267334,525.754761 1339.447266,499.235748 
	C1314.890259,482.016602 1289.227173,466.592926 1262.353271,453.317139 
	C1226.334595,435.523743 1189.002319,421.199799 1149.861450,411.658295 
	C1125.799072,405.792542 1101.558838,401.233856 1076.910156,398.964539 
	C1063.530151,397.732697 1050.120728,396.739655 1036.704346,396.009705 
	C1025.586060,395.404846 1014.403992,394.644257 1003.310486,395.186340 
	C980.284424,396.311554 957.274841,397.978882 934.302124,399.935486 
	C907.441711,402.223236 881.209106,408.117981 855.196472,414.990631 
	C822.643066,423.591431 791.159302,435.150848 760.529053,449.126709 
	C728.036682,463.952301 696.744629,481.001984 667.769775,501.835052 
	C646.886902,516.850037 626.663818,532.894775 607.067322,549.562927 
	C568.157532,582.658508 535.561218,621.470154 508.232330,664.520874 
	C494.873566,685.564758 482.801666,707.465942 470.926239,729.400757 
	C455.795868,757.347656 441.776886,785.866455 431.043671,815.875000 
	C422.127655,840.802734 415.441376,866.314941 411.017059,892.404602 
	C407.130096,915.325745 403.912323,938.351624 403.978546,961.658447 
	C404.041290,983.732239 403.656494,1005.867249 405.155640,1027.860352 
	C406.731750,1050.983276 409.531891,1074.096191 413.250854,1096.977295 
	C416.402893,1116.370239 421.628143,1135.426025 426.288635,1154.815674 
	C434.000183,1185.116455 442.690948,1214.826172 454.326355,1243.636719 
	C453.932281,1243.799438 453.538177,1243.962158 453.144073,1244.124878 
	C450.834473,1239.325684 448.411804,1234.577271 446.232422,1229.719727 
	C420.091431,1171.453979 402.842529,1110.708130 396.905670,1047.057983 
	C380.158813,867.510803 432.379639,710.170898 552.511536,576.240723 
	C641.453125,477.083221 752.510071,414.472900 882.691895,386.238800 
	C936.011841,374.674683 990.049805,370.953674 1044.563599,373.871063 
	C1128.530396,378.364685 1208.338379,398.887207 1284.009521,435.506989 
	C1347.056519,466.017487 1403.574585,505.853027 1453.109741,555.348267 
	C1536.994019,639.165222 1593.682129,738.508057 1622.057373,853.797302 
	C1633.721313,901.188538 1639.972046,949.281433 1640.132080,998.116394 
	C1640.689941,1168.355225 1584.089233,1316.704102 1468.080566,1441.426025 
	C1383.034668,1532.859741 1279.037598,1593.157104 1157.879639,1623.543335 
	C1101.353149,1637.719971 1043.869141,1643.544189 985.609131,1642.019775 
	C870.356140,1639.003784 763.959595,1606.508911 665.956543,1546.104248 
	C649.667053,1536.064087 633.105103,1526.216553 621.018921,1510.823608 
	C592.467163,1474.460205 585.581604,1434.294312 603.911072,1391.799683 
	C647.292175,1291.226440 691.575684,1191.040649 735.814148,1090.839478 
	C798.076660,949.813660 860.612183,808.908325 923.071838,667.969543 
	C934.586548,641.986816 946.383423,616.129089 957.885132,590.140625 
	C966.354736,571.003540 980.983948,560.343689 1001.764648,560.384460 
	C1022.549377,560.425171 1037.096191,571.133911 1045.468994,590.347046 
	C1116.638794,753.662292 1187.977661,916.903870 1259.046143,1080.263062 
	C1291.531006,1154.933105 1323.506470,1229.824585 1355.765259,1304.593018 
	C1358.632202,1311.238037 1359.706299,1317.958618 1357.960571,1325.033203 
	C1355.645996,1334.412598 1347.635620,1339.331787 1338.544189,1335.901489 
	C1333.925903,1334.158936 1329.437500,1330.938721 1326.017578,1327.321045 
	C1260.473511,1257.987305 1186.684448,1199.651367 1100.565918,1157.704102 
	C1048.493530,1132.340210 994.082581,1114.244629 936.570618,1106.344849 
	C922.086121,1104.355469 907.380859,1103.972900 892.333252,1102.672974 
z"/>
<path fill="#090909" opacity="1.000000" stroke="none" 
	d="
M872.364990,958.248230 
	C872.900818,957.046936 873.436584,955.845642 874.426270,954.372925 
	C878.504456,955.714478 880.973450,954.362244 882.442261,950.961975 
	C884.170837,946.960205 882.969360,942.584167 879.856812,940.950073 
	C880.320251,939.653198 880.783630,938.356323 881.717407,937.216248 
	C885.788452,939.634766 888.595337,938.875183 888.622681,935.082397 
	C888.642212,932.368713 886.804016,929.641602 885.794739,926.920471 
	C886.613892,924.659058 887.432983,922.397583 888.746277,920.294434 
	C891.426636,920.513916 894.091248,921.392212 895.692566,920.454651 
	C898.449524,918.840088 899.026978,907.382996 896.950806,904.730103 
	C896.605652,904.289001 895.767456,904.233765 895.157104,904.000183 
	C896.185486,901.371582 897.213867,898.743042 898.718445,896.261597 
	C901.118591,897.036621 903.596436,898.734497 904.857483,898.081726 
	C908.005066,896.452393 906.936829,886.409241 903.699036,883.892517 
	C903.794250,883.469727 903.889465,883.046997 904.479614,882.312134 
	C910.070557,881.890137 914.696167,877.278137 914.452637,872.101501 
	C914.331055,869.516052 915.950378,865.949829 911.647644,864.876831 
	C912.451294,862.438599 913.254883,860.000366 914.543274,857.692932 
	C917.890564,860.077271 920.437500,859.147644 922.097961,856.495239 
	C924.634644,852.443176 922.055664,849.848206 918.864136,847.671509 
	C919.299622,846.198364 919.735168,844.725220 920.879211,843.103516 
	C923.672546,841.933960 927.162964,841.277161 927.541931,839.814148 
	C928.272827,836.993164 929.603516,833.169617 925.757080,830.905273 
	C926.231812,829.357666 926.706604,827.810059 927.898926,826.112671 
	C934.943176,825.714661 938.670349,821.397949 938.097473,815.266968 
	C937.837708,812.487610 937.645447,809.595154 938.157654,806.893311 
	C938.435059,805.430115 940.179504,804.179626 941.405151,802.979126 
	C942.794678,801.618164 944.344055,800.420471 945.823914,799.151855 
	C944.116333,797.732666 942.408752,796.313416 940.701172,794.894165 
	C941.777710,792.165283 942.854248,789.436462 944.476257,786.353882 
	C947.399170,785.686890 950.354736,786.092468 951.950928,784.808289 
	C953.017212,783.950500 952.083008,780.685425 952.182434,778.503967 
	C952.218018,777.723083 952.864563,776.965210 952.881470,776.189148 
	C952.957336,772.714905 952.906555,769.237976 952.901550,765.761963 
	C953.246887,764.719849 953.592224,763.677734 954.420532,762.326538 
	C960.357361,763.314514 962.485535,761.466370 963.097473,755.907959 
	C963.478638,752.445557 961.537292,750.936584 959.312012,749.290649 
	C972.188965,718.375183 985.011230,687.436523 998.055542,656.591858 
	C999.008362,654.338928 1001.568359,652.765747 1003.381104,650.876465 
	C1005.230652,652.675354 1007.750854,654.144531 1008.823425,656.325562 
	C1017.115967,673.189209 1025.128662,690.190552 1033.333984,707.506592 
	C1032.020264,709.513672 1030.120605,710.948181 1029.266479,712.851685 
	C1026.088745,719.934326 1023.254578,727.171143 1019.821960,734.722778 
	C1018.902527,736.397217 1018.452454,737.698914 1018.002441,739.000671 
	C1016.853516,742.190918 1015.704529,745.381165 1013.941162,748.840881 
	C1012.884521,750.740295 1012.442261,752.370117 1012.000000,754.000000 
	C1009.511353,760.182007 1007.022644,766.363953 1003.924194,772.831177 
	C1002.543823,775.411682 1001.773132,777.706909 1001.002502,780.002136 
	C1000.430176,781.786926 999.857910,783.571716 998.798950,785.718018 
	C997.875671,787.386353 997.439026,788.693176 997.002441,790.000000 
	C996.752075,790.804260 996.501709,791.608459 995.801025,792.754272 
	C994.901306,794.397461 994.451843,795.699158 994.002441,797.000793 
	C993.097046,799.452454 992.191589,801.904114 990.818481,804.725830 
	C989.901306,806.397766 989.451904,807.699646 989.002441,809.001526 
	C988.096619,811.453796 987.190674,813.906006 985.851868,816.712524 
	C985.279297,817.711243 985.139648,818.355652 985.000061,819.000000 
	C981.096130,828.451721 977.192200,837.903442 972.800537,847.734436 
	C971.542664,850.409485 970.772522,852.705200 970.002441,855.000916 
	C969.752258,855.804932 969.502014,856.608887 968.835571,857.739868 
	C968.279541,858.711243 968.139771,859.355652 968.000000,860.000000 
	C965.763672,865.449951 963.527405,870.899963 960.802490,876.733398 
	C959.877747,878.081116 959.441528,879.045471 959.005371,880.009827 
	C957.848450,883.521301 956.691650,887.032837 954.924561,890.830444 
	C953.543762,893.411621 952.773071,895.706726 952.002441,898.001892 
	C951.752625,898.805603 951.502869,899.609253 950.802734,900.754272 
	C949.902405,902.397827 949.452393,903.700073 949.002441,905.002319 
	C945.764465,913.119934 942.526489,921.237549 938.801270,929.717163 
	C937.876892,931.386658 937.439697,932.694153 937.002441,934.001648 
	C936.097778,936.453064 935.193115,938.904480 933.854492,941.711426 
	C933.281128,942.712036 933.141785,943.357117 933.002380,944.002197 
	C932.752686,944.805847 932.502991,945.609497 931.802856,946.754395 
	C930.902466,948.397827 930.452454,949.700073 930.002441,951.002319 
	C929.097046,953.453491 928.191589,955.904724 926.818481,958.725891 
	C925.901367,960.397705 925.451904,961.699463 925.002441,963.001282 
	C920.765320,973.449646 916.528259,983.898071 911.820984,994.721191 
	C910.901306,996.397888 910.451904,997.699951 910.002441,999.001953 
	C906.431580,1007.784119 902.860779,1016.566284 898.789062,1025.718994 
	C895.722412,1027.164917 895.227295,1028.784668 896.996765,1031.000000 
	C895.508545,1034.516113 894.020386,1038.032104 891.929321,1041.829346 
	C890.885193,1043.740234 890.443787,1045.370117 890.002380,1047.000000 
	C887.513611,1053.180420 885.024841,1059.360840 881.980225,1065.803833 
	C881.283630,1066.710815 881.143066,1067.355469 881.002441,1068.000000 
	C880.178955,1070.514648 879.355530,1073.029297 877.977295,1075.805176 
	C877.282410,1076.711060 877.142456,1077.355469 877.002441,1078.000000 
	C876.752075,1078.804199 876.501709,1079.608398 875.801025,1080.754150 
	C874.901245,1082.397217 874.451843,1083.698608 874.002441,1085.000000 
	C872.763916,1088.119263 871.525391,1091.238525 869.853699,1094.712158 
	C869.281189,1095.711060 869.141846,1096.355591 869.002441,1097.000000 
	C868.184998,1099.192993 867.367554,1101.385986 865.943787,1103.844727 
	C864.892456,1105.740234 864.447449,1107.370117 864.002441,1109.000000 
	C862.513916,1112.845703 861.025391,1116.691528 858.980469,1120.801758 
	C858.283630,1121.710815 858.143005,1122.355469 858.002441,1123.000000 
	C854.764954,1131.116089 851.527466,1139.232300 847.854492,1147.707520 
	C847.279297,1148.711182 847.139648,1149.355591 847.000000,1150.000000 
	C846.424866,1151.460571 845.849731,1152.921021 844.847717,1154.724121 
	C844.280579,1155.711060 844.140320,1156.355591 844.000000,1157.000000 
	C837.054626,1173.878540 830.174011,1190.784058 823.149902,1207.629761 
	C810.307739,1238.428955 797.447266,1269.220947 784.473267,1299.964844 
	C765.946716,1343.866211 747.286926,1387.711304 728.735596,1431.602417 
	C722.402283,1446.586670 716.224243,1461.636719 709.918579,1477.052246 
	C702.700684,1472.928101 695.216980,1468.841064 688.446960,1463.796265 
	C675.309326,1454.006348 671.207825,1437.439209 677.584717,1422.260376 
	C699.402893,1370.326660 721.263916,1318.410889 743.072388,1266.473145 
	C762.851196,1219.369019 782.577576,1172.242798 802.337585,1125.130737 
	C809.585205,1107.850830 816.863098,1090.583618 824.820801,1073.133789 
	C827.860596,1073.043701 831.059204,1075.551636 832.096558,1071.514038 
	C833.140198,1067.452026 833.488892,1063.190552 833.821411,1058.990967 
	C833.868042,1058.401367 832.090271,1057.667236 831.156982,1057.000122 
	C831.838684,1055.084717 832.520386,1053.169434 833.890381,1051.146729 
	C838.323547,1052.649658 841.635986,1051.625977 842.219177,1047.755615 
	C842.483582,1046.000977 839.430115,1043.746460 837.881775,1041.718628 
	C838.940674,1038.662109 839.999573,1035.605591 841.523254,1032.672607 
	C847.535156,1036.012817 848.769165,1035.261963 849.052185,1029.001953 
	C849.226501,1025.144653 849.910767,1021.310364 850.373230,1017.406311 
	C857.281189,1019.348938 859.913879,1016.570984 858.775635,1009.626587 
	C857.914734,1004.374878 857.182251,999.016357 860.408081,994.000000 
	C862.497375,993.177307 865.538757,992.451416 865.605591,991.513672 
	C865.809021,988.655945 863.951050,986.735107 860.698120,986.896484 
	C861.783691,984.168823 862.869263,981.441162 864.426025,978.410461 
	C867.631897,979.397644 870.753052,979.549011 871.587219,976.388794 
	C873.142212,970.497559 875.556885,964.425293 872.364990,958.248230 
z"/>
<path fill="#0A0A0A" opacity="1.000000" stroke="none" 
	d="
M970.276001,854.790161 
	C970.772522,852.705200 971.542664,850.409485 972.655151,848.056885 
	C972.181580,850.193176 971.365601,852.386292 970.276001,854.790161 
z"/>
<path fill="#0A0A0A" opacity="1.000000" stroke="none" 
	d="
M952.276001,897.791016 
	C952.773071,895.706726 953.543762,893.411621 954.658447,891.058228 
	C954.184753,893.193359 953.367126,895.386719 952.276001,897.791016 
z"/>
<path fill="#0A0A0A" opacity="1.000000" stroke="none" 
	d="
M1001.276001,779.791199 
	C1001.773132,777.706909 1002.543823,775.411682 1003.658447,773.058228 
	C1003.184814,775.193420 1002.367188,777.386841 1001.276001,779.791199 
z"/>
<path fill="#0A0A0A" opacity="1.000000" stroke="none" 
	d="
M890.276245,1046.790039 
	C890.443787,1045.370117 890.885193,1043.740234 891.664490,1042.055176 
	C891.518311,1043.526611 891.034180,1045.053345 890.276245,1046.790039 
z"/>
<path fill="#0A0A0A" opacity="1.000000" stroke="none" 
	d="
M897.135132,1030.690552 
	C895.227295,1028.784668 895.722412,1027.164917 898.641602,1026.044800 
	C898.421265,1027.460327 897.847412,1028.920776 897.135132,1030.690552 
z"/>
<path fill="#0A0A0A" opacity="1.000000" stroke="none" 
	d="
M1012.260681,753.782593 
	C1012.442261,752.370117 1012.884521,750.740295 1013.664551,749.055176 
	C1013.508728,750.521729 1013.015015,752.043518 1012.260681,753.782593 
z"/>
<path fill="#0A0A0A" opacity="1.000000" stroke="none" 
	d="
M864.276245,1108.789917 
	C864.447449,1107.370117 864.892456,1105.740234 865.669983,1104.055176 
	C865.518372,1105.526611 865.034241,1107.053223 864.276245,1108.789917 
z"/>
<path fill="#0A0A0A" opacity="1.000000" stroke="none" 
	d="
M937.265625,933.807251 
	C937.439697,932.694153 937.876892,931.386658 938.655823,930.039551 
	C938.507996,931.204224 938.018433,932.408508 937.265625,933.807251 
z"/>
<path fill="#0A0A0A" opacity="1.000000" stroke="none" 
	d="
M997.265808,789.805969 
	C997.439026,788.693176 997.875671,787.386353 998.653748,786.039795 
	C998.506531,787.203979 998.017883,788.407959 997.265808,789.805969 
z"/>
<path fill="#0A0A0A" opacity="1.000000" stroke="none" 
	d="
M874.265747,1084.806030 
	C874.451843,1083.698608 874.901245,1082.397217 875.672913,1081.047852 
	C875.506470,1082.203979 875.017761,1083.408081 874.265747,1084.806030 
z"/>
<path fill="#0A0A0A" opacity="1.000000" stroke="none" 
	d="
M910.265625,998.807495 
	C910.451904,997.699951 910.901306,996.397888 911.672974,995.047974 
	C911.506348,996.204346 911.017578,997.408630 910.265625,998.807495 
z"/>
<path fill="#0A0A0A" opacity="1.000000" stroke="none" 
	d="
M1018.265564,738.806274 
	C1018.452454,737.698914 1018.902527,736.397217 1019.675049,735.047729 
	C1019.507935,736.203979 1019.018311,737.407959 1018.265564,738.806274 
z"/>
<path fill="#0A0A0A" opacity="1.000000" stroke="none" 
	d="
M930.265625,950.807861 
	C930.452454,949.700073 930.902466,948.397827 931.675049,947.047791 
	C931.507996,948.204468 931.018433,949.408936 930.265625,950.807861 
z"/>
<path fill="#0A0A0A" opacity="1.000000" stroke="none" 
	d="
M925.265625,962.806885 
	C925.451904,961.699463 925.901367,960.397705 926.672974,959.047974 
	C926.506348,960.204163 926.017578,961.408325 925.265625,962.806885 
z"/>
<path fill="#0A0A0A" opacity="1.000000" stroke="none" 
	d="
M949.265625,904.807739 
	C949.452393,903.700073 949.902405,902.397827 950.675049,901.047791 
	C950.508057,902.204407 950.018433,903.408813 949.265625,904.807739 
z"/>
<path fill="#0A0A0A" opacity="1.000000" stroke="none" 
	d="
M994.265625,796.806458 
	C994.451843,795.699158 994.901306,794.397461 995.672974,793.047913 
	C995.506409,794.204041 995.017639,795.408081 994.265625,796.806458 
z"/>
<path fill="#0A0A0A" opacity="1.000000" stroke="none" 
	d="
M989.265625,808.807129 
	C989.451904,807.699646 989.901306,806.397766 990.672974,805.047974 
	C990.506409,806.204224 990.017639,807.408447 989.265625,808.807129 
z"/>
<path fill="#CBCBCB" opacity="1.000000" stroke="none" 
	d="
M885.740967,1101.227661 
	C886.091675,1101.581665 886.117554,1101.922241 886.103394,1102.516602 
	C885.013916,1102.770386 883.964417,1102.770386 881.787170,1102.770386 
	C883.680908,1101.958374 884.548523,1101.586304 885.740967,1101.227661 
z"/>
<path fill="#0A0A0A" opacity="1.000000" stroke="none" 
	d="
M959.290833,879.862732 
	C959.441528,879.045471 959.877747,878.081116 960.655762,877.058350 
	C960.523804,877.905212 960.050049,878.810425 959.290833,879.862732 
z"/>
<path fill="#0A0A0A" opacity="1.000000" stroke="none" 
	d="
M933.242432,943.829712 
	C933.141785,943.357117 933.281128,942.712036 933.708984,942.033447 
	C933.825867,942.552429 933.654114,943.104797 933.242432,943.829712 
z"/>
<path fill="#0A0A0A" opacity="1.000000" stroke="none" 
	d="
M844.240356,1156.828125 
	C844.140320,1156.355591 844.280579,1155.711060 844.709229,1155.033325 
	C844.825317,1155.552124 844.652954,1156.104248 844.240356,1156.828125 
z"/>
<path fill="#0A0A0A" opacity="1.000000" stroke="none" 
	d="
M847.240356,1149.828125 
	C847.139648,1149.355591 847.279297,1148.711182 847.707031,1148.033447 
	C847.823669,1148.552124 847.652222,1149.104248 847.240356,1149.828125 
z"/>
<path fill="#0A0A0A" opacity="1.000000" stroke="none" 
	d="
M858.242615,1122.828125 
	C858.143005,1122.355469 858.283630,1121.710815 858.713379,1121.033203 
	C858.829285,1121.552002 858.656067,1122.104126 858.242615,1122.828125 
z"/>
<path fill="#0A0A0A" opacity="1.000000" stroke="none" 
	d="
M869.242615,1096.828125 
	C869.141846,1096.355591 869.281189,1095.711060 869.709106,1095.033325 
	C869.825989,1095.552124 869.654419,1096.104126 869.242615,1096.828125 
z"/>
<path fill="#0A0A0A" opacity="1.000000" stroke="none" 
	d="
M877.242737,1077.828125 
	C877.142456,1077.355469 877.282410,1076.711060 877.711243,1076.033203 
	C877.827698,1076.552124 877.655334,1077.104126 877.242737,1077.828125 
z"/>
<path fill="#0A0A0A" opacity="1.000000" stroke="none" 
	d="
M881.242798,1067.828247 
	C881.143066,1067.355469 881.283630,1066.710815 881.713379,1066.033203 
	C881.829346,1066.552124 881.656250,1067.104370 881.242798,1067.828247 
z"/>
<path fill="#0A0A0A" opacity="1.000000" stroke="none" 
	d="
M985.240112,818.827942 
	C985.139648,818.355652 985.279297,817.711243 985.707031,817.033447 
	C985.823486,817.551941 985.651855,818.103943 985.240112,818.827942 
z"/>
<path fill="#0A0A0A" opacity="1.000000" stroke="none" 
	d="
M968.240234,859.828125 
	C968.139771,859.355652 968.279541,858.711243 968.707520,858.033447 
	C968.824036,858.552063 968.652283,859.104187 968.240234,859.828125 
z"/>
<path fill="#CBCBCB" opacity="1.000000" stroke="none" 
	d="
M454.060333,1245.836792 
	C454.316071,1245.554932 454.632599,1245.596680 454.949158,1245.638428 
	C454.874725,1245.916016 454.800232,1246.193481 454.725769,1246.471069 
	C454.524200,1246.367554 454.322662,1246.264038 454.060333,1245.836792 
z"/>
<path fill="#090908" opacity="1.000000" stroke="none" 
	d="
M860.000000,994.000000 
	C857.182251,999.016357 857.914734,1004.374878 858.775635,1009.626587 
	C859.913879,1016.570984 857.281189,1019.348938 850.373230,1017.406311 
	C849.910767,1021.310364 849.226501,1025.144653 849.052185,1029.001953 
	C848.769165,1035.261963 847.535156,1036.012817 841.831543,1032.418213 
	C847.191956,1018.726257 852.708801,1005.412048 858.660400,992.191406 
	C859.396729,992.856628 859.698364,993.428345 860.000000,994.000000 
z"/>
<path fill="#090908" opacity="1.000000" stroke="none" 
	d="
M940.412720,795.105347 
	C942.408752,796.313416 944.116333,797.732666 945.823914,799.151855 
	C944.344055,800.420471 942.794678,801.618164 941.405151,802.979126 
	C940.179504,804.179626 938.435059,805.430115 938.157654,806.893311 
	C937.645447,809.595154 937.837708,812.487610 938.097473,815.266968 
	C938.670349,821.397949 934.943176,825.714661 928.204834,825.942505 
	C931.903442,815.720276 936.013794,805.518433 940.412720,795.105347 
z"/>
<path fill="#090908" opacity="1.000000" stroke="none" 
	d="
M895.037781,904.351807 
	C895.767456,904.233765 896.605652,904.289001 896.950806,904.730103 
	C899.026978,907.382996 898.449524,918.840088 895.692566,920.454651 
	C894.091248,921.392212 891.426636,920.513916 889.065918,920.113403 
	C890.900452,914.750549 892.909485,909.726990 895.037781,904.351807 
z"/>
<path fill="#090908" opacity="1.000000" stroke="none" 
	d="
M952.577271,765.949219 
	C952.906555,769.237976 952.957336,772.714905 952.881470,776.189148 
	C952.864563,776.965210 952.218018,777.723083 952.182434,778.503967 
	C952.083008,780.685425 953.017212,783.950500 951.950928,784.808289 
	C950.354736,786.092468 947.399170,785.686890 944.589966,786.000122 
	C946.856445,779.378967 949.554688,772.757690 952.577271,765.949219 
z"/>
<path fill="#090908" opacity="1.000000" stroke="none" 
	d="
M872.189575,958.575806 
	C875.556885,964.425293 873.142212,970.497559 871.587219,976.388794 
	C870.753052,979.549011 867.631897,979.397644 864.532349,978.053955 
	C866.783081,971.634766 869.398621,965.269043 872.189575,958.575806 
z"/>
<path fill="#090908" opacity="1.000000" stroke="none" 
	d="
M911.376099,865.101685 
	C915.950378,865.949829 914.331055,869.516052 914.452637,872.101501 
	C914.696167,877.278137 910.070557,881.890137 904.571045,882.000183 
	C906.479858,876.442444 908.792175,870.884521 911.376099,865.101685 
z"/>
<path fill="#090908" opacity="1.000000" stroke="none" 
	d="
M831.043274,1057.354370 
	C832.090271,1057.667236 833.868042,1058.401367 833.821411,1058.990967 
	C833.488892,1063.190552 833.140198,1067.452026 832.096558,1071.514038 
	C831.059204,1075.551636 827.860596,1073.043701 825.110840,1072.923828 
	C826.781311,1067.829956 828.855408,1062.769287 831.043274,1057.354370 
z"/>
<path fill="#090908" opacity="1.000000" stroke="none" 
	d="
M903.411438,884.104248 
	C906.936829,886.409241 908.005066,896.452393 904.857483,898.081726 
	C903.596436,898.734497 901.118591,897.036621 899.032227,896.070801 
	C900.287781,891.927246 901.705811,888.121643 903.411438,884.104248 
z"/>
<path fill="#090908" opacity="1.000000" stroke="none" 
	d="
M879.528076,941.115967 
	C882.969360,942.584167 884.170837,946.960205 882.442261,950.961975 
	C880.973450,954.362244 878.504456,955.714478 874.523926,954.050903 
	C875.844971,949.760925 877.522156,945.521423 879.528076,941.115967 
z"/>
<path fill="#090908" opacity="1.000000" stroke="none" 
	d="
M959.159180,749.622253 
	C961.537292,750.936584 963.478638,752.445557 963.097473,755.907959 
	C962.485535,761.466370 960.357361,763.314514 954.530273,762.008911 
	C955.773560,757.984802 957.389893,753.969299 959.159180,749.622253 
z"/>
<path fill="#090908" opacity="1.000000" stroke="none" 
	d="
M918.553467,847.874390 
	C922.055664,849.848206 924.634644,852.443176 922.097961,856.495239 
	C920.437500,859.147644 917.890564,860.077271 914.850037,857.432251 
	C915.862244,854.052917 917.052551,851.065125 918.553467,847.874390 
z"/>
<path fill="#090908" opacity="1.000000" stroke="none" 
	d="
M885.483337,927.100220 
	C886.804016,929.641602 888.642212,932.368713 888.622681,935.082397 
	C888.595337,938.875183 885.788452,939.634766 882.016663,937.031250 
	C882.954285,933.552917 884.063110,930.416443 885.483337,927.100220 
z"/>
<path fill="#090908" opacity="1.000000" stroke="none" 
	d="
M837.564575,1041.913086 
	C839.430115,1043.746460 842.483582,1046.000977 842.219177,1047.755615 
	C841.635986,1051.625977 838.323547,1052.649658 834.201904,1050.986938 
	C834.965820,1047.992188 836.106567,1045.049927 837.564575,1041.913086 
z"/>
<path fill="#090908" opacity="1.000000" stroke="none" 
	d="
M925.453491,831.098633 
	C929.603516,833.169617 928.272827,836.993164 927.541931,839.814148 
	C927.162964,841.277161 923.672546,841.933960 921.171021,842.931274 
	C922.219543,839.035767 923.684753,835.163879 925.453491,831.098633 
z"/>
<path fill="#090908" opacity="1.000000" stroke="none" 
	d="
M860.408081,994.000000 
	C859.698364,993.428345 859.396729,992.856628 858.970947,991.986206 
	C859.278381,990.217651 859.710083,988.747803 860.419922,987.087219 
	C863.951050,986.735107 865.809021,988.655945 865.605591,991.513672 
	C865.538757,992.451416 862.497375,993.177307 860.408081,994.000000 
z"/>
<path fill="#121212" opacity="1.000000" stroke="none" 
	d="
M1285.692383,1235.813721 
	C1285.893188,1235.488037 1286.112427,1235.123657 1286.331787,1234.759277 
	C1286.318848,1235.064209 1286.305786,1235.369019 1285.967529,1235.734253 
	C1285.642212,1235.794556 1285.711060,1235.774902 1285.692383,1235.813721 
z"/>
</svg>